<svg width="80" height="69" viewBox="0 0 80 69" fill="none" xmlns="http://www.w3.org/2000/svg">
<path fill-rule="evenodd" clip-rule="evenodd" d="M45.2662 11.9354C46.2397 12.1295 47.3911 11.7843 48.3161 12.1619C49.6293 12.6985 49.3731 15.6082 50.0095 16.7623C51.517 17.3367 53.0244 17.9111 54.5318 18.4882C55.4999 17.9866 57.0423 16.4145 58.0428 16.2958C59.1592 16.161 61.1331 18.561 61.9259 19.3538C62.2873 19.7151 62.7484 20.1466 62.8077 20.6859C62.9641 22.1286 61.0333 23.0643 60.7826 24.3857C60.6504 25.0706 61.8396 27.7969 62.1767 28.5574C62.8023 29.965 65.267 29.183 66.3942 29.9111C67.4028 30.5637 67.1628 34.5169 67.0414 35.7034C66.7826 38.214 62.441 36.3695 62.1471 38.8288C62.8239 39.2738 63.7839 39.1039 64.6199 39.1012C66.3781 39.1012 69.4225 38.694 71.0001 39.2711C71.4558 39.8185 71.5151 40.2068 71.2077 40.854C70.2154 41.4634 68.894 41.0994 67.7722 41.2612C67.4513 42.5529 67.721 44.2329 67.7264 45.5839C67.7399 48.6742 67.7345 51.7618 67.7264 54.8495C67.7237 56.1438 68.1012 58.9403 67.2949 59.9003C66.796 60.0782 66.5453 60.0593 66.0599 59.8544C65.3075 58.889 65.6688 57.058 65.6688 55.8796C65.6661 52.5843 65.6769 49.2917 65.6661 45.9964C65.6608 45.0769 65.9439 42.0054 65.1214 41.4796C64.539 41.1048 63.6275 41.2369 62.9722 41.2369C61.2545 41.2288 59.5394 41.2342 57.8244 41.2369C51.9214 41.2477 46.0212 41.2396 40.1183 41.2288C38.0042 41.2261 34.7763 40.5708 33.1017 42.1645C31.7749 43.4266 31.961 45.1416 31.961 46.8216C31.9664 49.9093 31.9934 52.9969 31.9826 56.0845C31.9799 57.3169 32.5111 60.9789 30.2379 59.8221C29.4532 58.6922 30.1111 56.8854 29.7848 55.5803C26.4734 55.5803 23.1619 55.5803 19.8532 55.5803C19.5916 56.7101 20.0419 58.0773 19.3381 59.0832C18.2864 60.596 13.5808 60.658 12.6019 59.0023C11.9601 57.9128 12.3431 56.454 12.1516 55.2621C11.2644 54.6391 10.3449 54.1699 9.65992 53.2962C7.37318 50.3839 8.11205 46.1609 8.12014 42.7039C8.13363 35.5659 8.14172 28.4279 8.12554 21.29C8.11745 17.5686 7.27071 12.8576 10.1534 9.95874C12.2622 7.83919 14.8968 8.01447 17.677 8.02525C21.2473 8.03604 24.815 8.01986 28.3826 8.02255C31.1979 8.02255 34.0105 8.01716 36.8257 8.01716C38.5192 8.01716 40.2531 7.84998 41.8415 8.55919C43.4325 9.2684 44.3277 10.5547 45.2662 11.9354ZM17.5125 12.1969C15.7867 12.6877 15.6869 15.7592 17.5125 16.1772C19.0765 16.5358 21.0181 16.2392 22.6199 16.2365C26.1201 16.2338 29.6203 16.2338 33.1179 16.2365C34.6388 16.2392 37.392 16.7974 37.6698 14.6643C38.05 11.7142 35.6096 12.0756 33.5305 12.0756C29.9628 12.0729 26.3925 12.0783 22.8248 12.0756C21.1772 12.0756 19.1062 11.7412 17.5125 12.1969ZM13.5754 20.4163C11.9197 20.721 12.1813 22.738 12.1813 23.9677C12.1786 26.3003 12.184 28.6356 12.1867 30.9681C12.1894 32.4594 12.0518 33.9263 12.8878 35.2423C14.3116 37.4751 17.0406 37.0652 19.3246 37.0625C24.61 37.0517 29.8927 37.0571 35.1781 37.0625C37.4999 37.0652 40.1561 37.2135 41.3129 34.7299C41.8549 33.565 41.6824 32.2167 41.6797 30.9681C41.677 28.703 41.6797 26.4378 41.6824 24.1727C41.6824 23.0347 41.9979 21.387 40.8653 20.6563C40.1884 20.2221 39.2338 20.3623 38.4707 20.3623C36.8931 20.3623 35.3156 20.3677 33.7354 20.3677C29.2752 20.3677 24.815 20.3677 20.3547 20.365C18.1947 20.365 15.6977 20.0252 13.5754 20.4163ZM53.6338 39.0958C56.7322 34.1232 55.4432 27.6082 50.0823 24.8037C48.8203 24.143 47.3237 23.5929 45.8783 23.7628C45.4064 25.5102 45.7246 27.6971 45.7273 29.5255C45.7327 32.6724 45.4468 35.9785 45.8163 39.0958C48.4212 39.0958 51.0289 39.0958 53.6338 39.0958ZM16.8869 42.0432C13.4325 42.6769 14.3655 48.1295 17.8226 47.6549C21.5224 47.1452 20.5893 41.3609 16.8869 42.0432ZM54.5318 48.6176C53.4504 48.9304 52.4608 49.5695 51.3848 49.9308C50.9129 50.0899 50.2361 50.1304 49.9313 50.5699C49.125 51.7349 49.9313 54.3048 48.4401 55.0355C46.8167 55.8337 43.4621 54.6041 41.7659 55.4023C41.5799 56.5726 41.9898 57.9964 41.3318 59.0535C40.3907 60.569 35.677 60.596 34.6711 59.1587C33.9538 58.1286 34.2208 56.6481 34.2154 55.467C34.2019 52.7218 34.2208 49.9767 34.21 47.2315C34.2046 46.1636 33.8487 44.4324 34.8545 43.7124C35.7309 43.0868 39.3282 43.4589 40.5309 43.4616C45.4711 43.467 50.414 43.4562 55.3543 43.4562C56.7268 43.4535 58.0994 43.4508 59.472 43.4535C60.0194 43.4562 60.8419 43.3052 61.3084 43.6369C61.6158 43.8526 61.81 44.2868 62.0095 44.5942C63.5709 47.005 62.1605 47.5039 60.4832 49.1677C59.9817 49.6666 59.3453 50.6185 58.628 50.783C57.2284 51.1092 55.7048 49.2162 54.5318 48.6176Z" fill="#055855" stroke="#055855" stroke-width="0.0674157" stroke-linejoin="round"/>
</svg>
